<?xml version="1.0" encoding="UTF-8"?>
<svg version="1.1" xmlns="http://www.w3.org/2000/svg" width="172" height="165">
<path d="M0 0 C2.5 0.125 2.5 0.125 3.5 1.125 C3.5728714 4.13549961 3.49617197 7.13392563 3.4375 10.14453125 C3.50704842 13.73384717 3.50704842 13.73384717 4.5 17.125 C5.985 17.62 5.985 17.62 7.5 18.125 C8.44915684 19.95551676 9.38618567 21.79356756 10.25390625 23.6640625 C12.20023326 27.5079058 14.62303173 31.02890195 17.01171875 34.609375 C18.5 37.125 18.5 37.125 18.953125 39.34375 C19.33368441 41.3102586 19.33368441 41.3102586 21.34765625 42.171875 C22.07855469 42.40390625 22.80945313 42.6359375 23.5625 42.875 C24.29597656 43.11734375 25.02945313 43.3596875 25.78515625 43.609375 C26.35105469 43.77953125 26.91695312 43.9496875 27.5 44.125 C27.5 44.785 27.5 45.445 27.5 46.125 C28.49 46.455 29.48 46.785 30.5 47.125 C37.70493679 57.41776685 34.83282207 72.01728316 32.92431641 83.78955078 C31.58925837 91.13774711 29.85302084 98.41244206 28.09472656 105.66918945 C27.70713872 107.26965995 27.3284316 108.87231533 26.95996094 110.47729492 C25.92518461 114.88606014 25.19395277 117.35453542 21.5 120.125 C14.65719438 124.12813989 8.1283868 123.53270822 0.5 123.125 C-0.69496094 123.06699219 -1.88992187 123.00898438 -3.12109375 122.94921875 C-12.01735041 122.16785441 -20.32996956 119.93712712 -28.875 117.375 C-30.51529175 116.89063477 -30.51529175 116.89063477 -32.1887207 116.39648438 C-40.772901 113.70637843 -50.734167 110.2933348 -55.5 102.125 C-56.85553742 98.90513843 -57.97571791 95.63145925 -59.0625 92.3125 C-59.64632772 90.57655107 -60.23095377 88.8408704 -60.81640625 87.10546875 C-61.09500488 86.26806152 -61.37360352 85.4306543 -61.66064453 84.56787109 C-62.45838574 82.24611468 -63.32315437 79.96279455 -64.21484375 77.67578125 C-65.5 74.125 -65.5 74.125 -65.5 71.125 C-66.799375 70.75375 -66.799375 70.75375 -68.125 70.375 C-71.69705236 69.05201765 -74.36173474 67.26169124 -77.5 65.125 C-79.14619113 64.40926473 -80.80728055 63.7224304 -82.5 63.125 C-82.5 62.465 -82.5 61.805 -82.5 61.125 C-84.15 60.465 -85.8 59.805 -87.5 59.125 C-87.5 58.465 -87.5 57.805 -87.5 57.125 C-88.49 56.795 -89.48 56.465 -90.5 56.125 C-92.61214237 54.06135556 -94.36656905 51.69639326 -96.1875 49.375 C-96.69861328 48.75367188 -97.20972656 48.13234375 -97.73632812 47.4921875 C-99.9284599 44.71763354 -101.37280714 42.83491363 -102.00390625 39.3125 C-101.5 37.125 -101.5 37.125 -98.75 34.875 C-92.93130897 31.74185867 -87.7371944 31.9419863 -81.25 31.9375 C-80.33347656 31.92525391 -79.41695312 31.91300781 -78.47265625 31.90039062 C-72.79450324 31.88824051 -67.94633436 32.50771996 -62.5 34.125 C-62.02820312 33.31095703 -62.02820312 33.31095703 -61.546875 32.48046875 C-57.1576092 25.14299128 -57.1576092 25.14299128 -53.5 23.125 C-52.84 23.125 -52.18 23.125 -51.5 23.125 C-51.005 21.64 -51.005 21.64 -50.5 20.125 C-43.37309687 16.38756436 -35.74871971 15.61550565 -27.84545898 15.62841797 C-25.62990193 15.6291179 -25.62990193 15.6291179 -22.5 15.125 C-20.63637498 13.20499567 -20.63637498 13.20499567 -19.5 11.125 C-18.84 11.125 -18.18 11.125 -17.5 11.125 C-17.17 10.135 -16.84 9.145 -16.5 8.125 C-15.84 8.125 -15.18 8.125 -14.5 8.125 C-14.17 7.135 -13.84 6.145 -13.5 5.125 C-11.25 3.9921875 -11.25 3.9921875 -8.5 3 C-0.36355476 0.01817774 -0.36355476 0.01817774 0 0 Z M-5.5 12.125 C-8.2748674 15.24672583 -9.46705547 16.99322189 -10.5 21.125 C-7.53 21.455 -4.56 21.785 -1.5 22.125 C-2.49 18.825 -3.48 15.525 -4.5 12.125 C-4.83 12.125 -5.16 12.125 -5.5 12.125 Z M-6.625 35.875 C-8.81976074 37.06104785 -8.81976074 37.06104785 -9.5 40.125 C-6.53 42.105 -6.53 42.105 -3.5 44.125 C-1.8516367 42.37255753 -1.8516367 42.37255753 -0.5 40.125 C-0.4853761 37.9314655 -0.4853761 37.9314655 -1.5 36.125 C-4.35930528 34.83082012 -4.35930528 34.83082012 -6.625 35.875 Z M-88.5 43.125 C-88.5 43.785 -88.5 44.445 -88.5 45.125 C-86.73289901 46.35935061 -84.90980432 47.51426416 -83.0625 48.625 C-77.60511883 51.91476234 -77.60511883 51.91476234 -76.5 54.125 C-74.26184634 55.22315353 -74.26184634 55.22315353 -71.625 56.1875 C-70.74070312 56.52910156 -69.85640625 56.87070313 -68.9453125 57.22265625 C-67.14152209 57.8882722 -65.3240159 58.5169947 -63.5 59.125 C-63.17 54.505 -62.84 49.885 -62.5 45.125 C-71.26215566 42.93446108 -79.53811438 42.92485863 -88.5 43.125 Z M-49.5 54.125 C-48.91825155 59.4336849 -48.91825155 59.4336849 -46.5 64.125 C-44.1568787 63.86938677 -41.82156597 63.53229228 -39.5 63.125 C-38.11449803 60.35399606 -38.3122533 58.1915294 -38.5 55.125 C-39.16 54.135 -39.82 53.145 -40.5 52.125 C-44.10591321 51.65053774 -46.39782379 52.28667336 -49.5 54.125 Z M-20.5 67.125 C-22.50711468 69.93496055 -22.49595114 71.20327799 -22.3125 74.75 C-21.84075097 78.38830048 -21.84075097 78.38830048 -18.5 80.125 C-17.51 80.125 -16.52 80.125 -15.5 80.125 C-15.11781233 78.46885343 -14.78604898 76.80042976 -14.5 75.125 C-14.83 74.795 -15.16 74.465 -15.5 74.125 C-15.54063832 72.45882885 -15.542721 70.79111905 -15.5 69.125 C-13.19 69.455 -10.88 69.785 -8.5 70.125 C-7.84 72.105 -7.18 74.085 -6.5 76.125 C-5.18 76.125 -3.86 76.125 -2.5 76.125 C-2.0231292 71.05331264 -2.0231292 71.05331264 -4.375 66.75 C-7.40629856 64.43194816 -9.17163972 63.94920414 -12.9375 63.875 C-14.11119141 63.83632812 -14.11119141 63.83632812 -15.30859375 63.796875 C-18.01552029 64.2021902 -18.80255903 65.03268605 -20.5 67.125 Z M16.5 73.125 C16.273125 73.7025 16.04625 74.28 15.8125 74.875 C13.50215326 78.83559442 9.73535873 81.47711298 5.5 83.125 C2.046875 83.3203125 2.046875 83.3203125 -1.75 83.25 C-3.01328125 83.23195313 -4.2765625 83.21390625 -5.578125 83.1953125 C-6.54234375 83.17210938 -7.5065625 83.14890625 -8.5 83.125 C-9.056875 84.1975 -9.61375 85.27 -10.1875 86.375 C-13.1521074 91.5526242 -17.3935656 94.20703748 -22.5 97.125 C-21.19467452 101.04097644 -19.52734726 101.66330346 -16.0625 103.8125 C-15.07378906 104.43511719 -14.08507812 105.05773437 -13.06640625 105.69921875 C-10.69792479 107.28688098 -10.69792479 107.28688098 -8.5 107.125 C-8.54640625 106.24457031 -8.5928125 105.36414063 -8.640625 104.45703125 C-8.67671875 103.29558594 -8.7128125 102.13414063 -8.75 100.9375 C-8.79640625 99.78894531 -8.8428125 98.64039062 -8.890625 97.45703125 C-8.42355327 93.47290939 -7.29718573 91.9374709 -4.5 89.125 C0.76821914 86.42664385 6.70773121 86.71802687 12.5 87.125 C13.16 87.455 13.82 87.785 14.5 88.125 C15.09355614 90.77360427 15.24209269 93.41697322 15.5 96.125 C15.83 96.125 16.16 96.125 16.5 96.125 C16.53738281 95.40054688 16.57476562 94.67609375 16.61328125 93.9296875 C17.00205751 88.21238955 17.71504434 84.2105712 20.5 79.125 C20.75284367 76.37353726 20.75284367 76.37353726 20.5 74.125 C19.18 73.795 17.86 73.465 16.5 73.125 Z M16.5 98.125 C16.5 99.775 16.5 101.425 16.5 103.125 C16.83 103.125 17.16 103.125 17.5 103.125 C17.5 101.475 17.5 99.825 17.5 98.125 C17.17 98.125 16.84 98.125 16.5 98.125 Z M10.5 111.125 C8.52 112.115 8.52 112.115 6.5 113.125 C8.15 113.125 9.8 113.125 11.5 113.125 C11.17 112.465 10.84 111.805 10.5 111.125 Z " fill="#000000" transform="translate(103.5,9.875)"/>
</svg>
